<svg xmlns="http://www.w3.org/2000/svg" xmlns:xlink="http://www.w3.org/1999/xlink" width="600" zoomAndPan="magnify" viewBox="0 0 450 104.999996" height="140" preserveAspectRatio="xMidYMid meet" version="1.0"><defs><g/><clipPath id="f37157c7dc"><path d="M 0.921875 0 L 446.839844 0 L 446.839844 66 L 0.921875 66 Z M 0.921875 0 " clip-rule="nonzero"/></clipPath><clipPath id="37507e066e"><rect x="0" width="447" y="0" height="66"/></clipPath><clipPath id="800c72adb5"><rect x="0" width="447" y="0" height="104"/></clipPath></defs><g transform="matrix(1, 0, 0, 1, 1, 0.000000000000010413)"><g clip-path="url(#800c72adb5)"><g clip-path="url(#f37157c7dc)"><g transform="matrix(1, 0, 0, 1, 0, 0.000000000000010413)"><g clip-path="url(#37507e066e)"><g fill="#000000" fill-opacity="1"><g transform="translate(1.611334, 50.29815)"><g><path d="M 22.375 -45.4375 L 31.75 -45.4375 L 31.75 -13.984375 C 31.75 -11.085938 31.109375 -8.53125 29.828125 -6.3125 C 28.546875 -4.101562 26.738281 -2.394531 24.40625 -1.1875 C 22.070312 0.0195312 19.441406 0.625 16.515625 0.625 C 11.703125 0.625 7.953125 -0.59375 5.265625 -3.03125 C 2.585938 -5.476562 1.25 -8.941406 1.25 -13.421875 L 10.671875 -13.421875 C 10.671875 -11.191406 11.140625 -9.546875 12.078125 -8.484375 C 13.015625 -7.421875 14.492188 -6.890625 16.515625 -6.890625 C 18.296875 -6.890625 19.71875 -7.503906 20.78125 -8.734375 C 21.84375 -9.960938 22.375 -11.710938 22.375 -13.984375 Z M 22.375 -45.4375 "/></g></g></g><g fill="#000000" fill-opacity="1"><g transform="translate(37.316587, 50.29815)"><g><path d="M 31.40625 -19.6875 L 13.421875 -19.6875 L 13.421875 -7.515625 L 34.515625 -7.515625 L 34.515625 0 L 4.0625 0 L 4.0625 -45.4375 L 34.453125 -45.4375 L 34.453125 -37.859375 L 13.421875 -37.859375 L 13.421875 -27.03125 L 31.40625 -27.03125 Z M 31.40625 -19.6875 "/></g></g></g><g fill="#000000" fill-opacity="1"><g transform="translate(73.271528, 50.29815)"><g><path d="M 31.40625 -18.578125 L 13.421875 -18.578125 L 13.421875 0 L 4.0625 0 L 4.0625 -45.4375 L 33.640625 -45.4375 L 33.640625 -37.859375 L 13.421875 -37.859375 L 13.421875 -26.125 L 31.40625 -26.125 Z M 31.40625 -18.578125 "/></g></g></g><g fill="#000000" fill-opacity="1"><g transform="translate(108.290142, 50.29815)"><g><path d="M 31.40625 -18.578125 L 13.421875 -18.578125 L 13.421875 0 L 4.0625 0 L 4.0625 -45.4375 L 33.640625 -45.4375 L 33.640625 -37.859375 L 13.421875 -37.859375 L 13.421875 -26.125 L 31.40625 -26.125 Z M 31.40625 -18.578125 "/></g></g></g><g fill="#000000" fill-opacity="1"><g transform="translate(143.308756, 50.29815)"><g/></g></g><g fill="#8d98a8" fill-opacity="1"><g transform="translate(159.23643, 50.29815)"><g><path d="M 4.0625 0 L 4.0625 -45.4375 L 19.96875 -45.4375 C 25.488281 -45.4375 29.671875 -44.378906 32.515625 -42.265625 C 35.367188 -40.160156 36.796875 -37.066406 36.796875 -32.984375 C 36.796875 -30.765625 36.222656 -28.804688 35.078125 -27.109375 C 33.929688 -25.410156 32.34375 -24.164062 30.3125 -23.375 C 32.632812 -22.789062 34.46875 -21.613281 35.8125 -19.84375 C 37.15625 -18.082031 37.828125 -15.921875 37.828125 -13.359375 C 37.828125 -8.984375 36.429688 -5.671875 33.640625 -3.421875 C 30.859375 -1.179688 26.882812 -0.0390625 21.71875 0 Z M 13.421875 -19.78125 L 13.421875 -7.515625 L 21.4375 -7.515625 C 23.644531 -7.515625 25.367188 -8.039062 26.609375 -9.09375 C 27.847656 -10.144531 28.46875 -11.597656 28.46875 -13.453125 C 28.46875 -17.609375 26.3125 -19.71875 22 -19.78125 Z M 13.421875 -26.40625 L 20.34375 -26.40625 C 25.070312 -26.488281 27.4375 -28.367188 27.4375 -32.046875 C 27.4375 -34.109375 26.835938 -35.59375 25.640625 -36.5 C 24.441406 -37.40625 22.550781 -37.859375 19.96875 -37.859375 L 13.421875 -37.859375 Z M 13.421875 -26.40625 "/></g></g></g><g fill="#8d98a8" fill-opacity="1"><g transform="translate(200.029058, 50.29815)"><g><path d="M 38.453125 -45.4375 L 38.453125 -15.515625 C 38.453125 -10.535156 36.894531 -6.597656 33.78125 -3.703125 C 30.675781 -0.816406 26.425781 0.625 21.03125 0.625 C 15.726562 0.625 11.515625 -0.773438 8.390625 -3.578125 C 5.273438 -6.390625 3.6875 -10.253906 3.625 -15.171875 L 3.625 -45.4375 L 12.984375 -45.4375 L 12.984375 -15.453125 C 12.984375 -12.472656 13.695312 -10.300781 15.125 -8.9375 C 16.550781 -7.570312 18.519531 -6.890625 21.03125 -6.890625 C 26.300781 -6.890625 28.976562 -9.660156 29.0625 -15.203125 L 29.0625 -45.4375 Z M 38.453125 -45.4375 "/></g></g></g><g fill="#8d98a8" fill-opacity="1"><g transform="translate(242.101332, 50.29815)"><g><path d="M 39.734375 -15.140625 C 39.378906 -10.242188 37.570312 -6.390625 34.3125 -3.578125 C 31.0625 -0.773438 26.769531 0.625 21.4375 0.625 C 15.613281 0.625 11.03125 -1.332031 7.6875 -5.25 C 4.351562 -9.175781 2.6875 -14.5625 2.6875 -21.40625 L 2.6875 -24.1875 C 2.6875 -28.5625 3.453125 -32.410156 4.984375 -35.734375 C 6.523438 -39.066406 8.726562 -41.617188 11.59375 -43.390625 C 14.457031 -45.171875 17.78125 -46.0625 21.5625 -46.0625 C 26.8125 -46.0625 31.035156 -44.65625 34.234375 -41.84375 C 37.441406 -39.039062 39.296875 -35.101562 39.796875 -30.03125 L 30.4375 -30.03125 C 30.207031 -32.957031 29.390625 -35.082031 27.984375 -36.40625 C 26.578125 -37.726562 24.4375 -38.390625 21.5625 -38.390625 C 18.445312 -38.390625 16.113281 -37.269531 14.5625 -35.03125 C 13.007812 -32.800781 12.210938 -29.332031 12.171875 -24.625 L 12.171875 -21.1875 C 12.171875 -16.28125 12.914062 -12.691406 14.40625 -10.421875 C 15.894531 -8.148438 18.238281 -7.015625 21.4375 -7.015625 C 24.332031 -7.015625 26.492188 -7.675781 27.921875 -9 C 29.347656 -10.320312 30.164062 -12.367188 30.375 -15.140625 Z M 39.734375 -15.140625 "/></g></g></g><g fill="#8d98a8" fill-opacity="1"><g transform="translate(283.92392, 50.29815)"><g><path d="M 18.296875 -18.234375 L 13.421875 -12.984375 L 13.421875 0 L 4.0625 0 L 4.0625 -45.4375 L 13.421875 -45.4375 L 13.421875 -24.84375 L 17.546875 -30.5 L 29.125 -45.4375 L 40.640625 -45.4375 L 24.5 -25.25 L 41.109375 0 L 29.96875 0 Z M 18.296875 -18.234375 "/></g></g></g><g fill="#8d98a8" fill-opacity="1"><g transform="translate(324.498072, 50.29815)"><g><path d="M 41.015625 0 L 31.65625 0 L 13.421875 -29.90625 L 13.421875 0 L 4.0625 0 L 4.0625 -45.4375 L 13.421875 -45.4375 L 31.6875 -15.484375 L 31.6875 -45.4375 L 41.015625 -45.4375 Z M 41.015625 0 "/></g></g></g><g fill="#8d98a8" fill-opacity="1"><g transform="translate(369.629014, 50.29815)"><g><path d="M 31.40625 -19.6875 L 13.421875 -19.6875 L 13.421875 -7.515625 L 34.515625 -7.515625 L 34.515625 0 L 4.0625 0 L 4.0625 -45.4375 L 34.453125 -45.4375 L 34.453125 -37.859375 L 13.421875 -37.859375 L 13.421875 -27.03125 L 31.40625 -27.03125 Z M 31.40625 -19.6875 "/></g></g></g><g fill="#8d98a8" fill-opacity="1"><g transform="translate(405.583955, 50.29815)"><g><path d="M 20.875 -16.640625 L 13.421875 -16.640625 L 13.421875 0 L 4.0625 0 L 4.0625 -45.4375 L 20.9375 -45.4375 C 26.3125 -45.4375 30.453125 -44.238281 33.359375 -41.84375 C 36.273438 -39.457031 37.734375 -36.082031 37.734375 -31.71875 C 37.734375 -28.613281 37.0625 -26.023438 35.71875 -23.953125 C 34.375 -21.878906 32.34375 -20.234375 29.625 -19.015625 L 39.453125 -0.4375 L 39.453125 0 L 29.40625 0 Z M 13.421875 -24.21875 L 20.96875 -24.21875 C 23.320312 -24.21875 25.144531 -24.816406 26.4375 -26.015625 C 27.726562 -27.210938 28.375 -28.863281 28.375 -30.96875 C 28.375 -33.101562 27.765625 -34.785156 26.546875 -36.015625 C 25.328125 -37.242188 23.457031 -37.859375 20.9375 -37.859375 L 13.421875 -37.859375 Z M 13.421875 -24.21875 "/></g></g></g></g></g></g><g fill="#7b291e" fill-opacity="1"><g transform="translate(20.477664, 93.743735)"><g><path d="M 6.515625 -2.828125 L 18.921875 -2.828125 L 18.921875 0 L 3.046875 0 L 3.046875 -26.1875 L 6.515625 -26.1875 Z M 6.515625 -2.828125 "/></g></g></g><g fill="#7b291e" fill-opacity="1"><g transform="translate(42.51307, 93.743735)"><g><path d="M 10.59375 0.359375 C 7.957031 0.359375 5.8125 -0.503906 4.15625 -2.234375 C 2.5 -3.972656 1.671875 -6.289062 1.671875 -9.1875 L 1.671875 -9.796875 C 1.671875 -11.734375 2.039062 -13.457031 2.78125 -14.96875 C 3.519531 -16.488281 4.550781 -17.675781 5.875 -18.53125 C 7.195312 -19.394531 8.632812 -19.828125 10.1875 -19.828125 C 12.71875 -19.828125 14.679688 -18.992188 16.078125 -17.328125 C 17.484375 -15.660156 18.1875 -13.273438 18.1875 -10.171875 L 18.1875 -8.78125 L 5 -8.78125 C 5.050781 -6.863281 5.613281 -5.3125 6.6875 -4.125 C 7.757812 -2.945312 9.125 -2.359375 10.78125 -2.359375 C 11.957031 -2.359375 12.953125 -2.597656 13.765625 -3.078125 C 14.578125 -3.554688 15.289062 -4.191406 15.90625 -4.984375 L 17.9375 -3.40625 C 16.300781 -0.894531 13.851562 0.359375 10.59375 0.359375 Z M 10.1875 -17.09375 C 8.84375 -17.09375 7.710938 -16.601562 6.796875 -15.625 C 5.890625 -14.644531 5.328125 -13.273438 5.109375 -11.515625 L 14.859375 -11.515625 L 14.859375 -11.765625 C 14.765625 -13.453125 14.304688 -14.757812 13.484375 -15.6875 C 12.671875 -16.625 11.570312 -17.09375 10.1875 -17.09375 Z M 10.1875 -17.09375 "/></g></g></g><g fill="#7b291e" fill-opacity="1"><g transform="translate(64.242658, 93.743735)"><g><path d="M 14.53125 0 C 14.34375 -0.382812 14.1875 -1.066406 14.0625 -2.046875 C 12.519531 -0.441406 10.675781 0.359375 8.53125 0.359375 C 6.613281 0.359375 5.035156 -0.179688 3.796875 -1.265625 C 2.566406 -2.347656 1.953125 -3.722656 1.953125 -5.390625 C 1.953125 -7.421875 2.722656 -8.992188 4.265625 -10.109375 C 5.804688 -11.234375 7.976562 -11.796875 10.78125 -11.796875 L 14.015625 -11.796875 L 14.015625 -13.328125 C 14.015625 -14.492188 13.664062 -15.421875 12.96875 -16.109375 C 12.269531 -16.796875 11.242188 -17.140625 9.890625 -17.140625 C 8.703125 -17.140625 7.707031 -16.835938 6.90625 -16.234375 C 6.101562 -15.640625 5.703125 -14.914062 5.703125 -14.0625 L 2.359375 -14.0625 C 2.359375 -15.039062 2.703125 -15.976562 3.390625 -16.875 C 4.078125 -17.78125 5.007812 -18.5 6.1875 -19.03125 C 7.375 -19.5625 8.675781 -19.828125 10.09375 -19.828125 C 12.332031 -19.828125 14.085938 -19.265625 15.359375 -18.140625 C 16.628906 -17.023438 17.289062 -15.484375 17.34375 -13.515625 L 17.34375 -4.546875 C 17.34375 -2.765625 17.570312 -1.34375 18.03125 -0.28125 L 18.03125 0 Z M 9.015625 -2.53125 C 10.054688 -2.53125 11.046875 -2.800781 11.984375 -3.34375 C 12.921875 -3.882812 13.597656 -4.585938 14.015625 -5.453125 L 14.015625 -9.4375 L 11.40625 -9.4375 C 7.332031 -9.4375 5.296875 -8.242188 5.296875 -5.859375 C 5.296875 -4.816406 5.640625 -4 6.328125 -3.40625 C 7.023438 -2.820312 7.921875 -2.53125 9.015625 -2.53125 Z M 9.015625 -2.53125 "/></g></g></g><g fill="#7b291e" fill-opacity="1"><g transform="translate(86.49394, 93.743735)"><g><path d="M 1.703125 -9.890625 C 1.703125 -12.878906 2.410156 -15.28125 3.828125 -17.09375 C 5.242188 -18.914062 7.097656 -19.828125 9.390625 -19.828125 C 11.671875 -19.828125 13.476562 -19.046875 14.8125 -17.484375 L 14.8125 -27.640625 L 18.140625 -27.640625 L 18.140625 0 L 15.078125 0 L 14.90625 -2.09375 C 13.582031 -0.457031 11.734375 0.359375 9.359375 0.359375 C 7.097656 0.359375 5.253906 -0.5625 3.828125 -2.40625 C 2.410156 -4.257812 1.703125 -6.671875 1.703125 -9.640625 Z M 5.03125 -9.515625 C 5.03125 -7.304688 5.484375 -5.578125 6.390625 -4.328125 C 7.304688 -3.085938 8.570312 -2.46875 10.1875 -2.46875 C 12.289062 -2.46875 13.832031 -3.414062 14.8125 -5.3125 L 14.8125 -14.25 C 13.8125 -16.082031 12.28125 -17 10.21875 -17 C 8.582031 -17 7.304688 -16.367188 6.390625 -15.109375 C 5.484375 -13.847656 5.03125 -11.984375 5.03125 -9.515625 Z M 5.03125 -9.515625 "/></g></g></g><g fill="#7b291e" fill-opacity="1"><g transform="translate(109.482803, 93.743735)"><g><path d="M 10.59375 0.359375 C 7.957031 0.359375 5.8125 -0.503906 4.15625 -2.234375 C 2.5 -3.972656 1.671875 -6.289062 1.671875 -9.1875 L 1.671875 -9.796875 C 1.671875 -11.734375 2.039062 -13.457031 2.78125 -14.96875 C 3.519531 -16.488281 4.550781 -17.675781 5.875 -18.53125 C 7.195312 -19.394531 8.632812 -19.828125 10.1875 -19.828125 C 12.71875 -19.828125 14.679688 -18.992188 16.078125 -17.328125 C 17.484375 -15.660156 18.1875 -13.273438 18.1875 -10.171875 L 18.1875 -8.78125 L 5 -8.78125 C 5.050781 -6.863281 5.613281 -5.3125 6.6875 -4.125 C 7.757812 -2.945312 9.125 -2.359375 10.78125 -2.359375 C 11.957031 -2.359375 12.953125 -2.597656 13.765625 -3.078125 C 14.578125 -3.554688 15.289062 -4.191406 15.90625 -4.984375 L 17.9375 -3.40625 C 16.300781 -0.894531 13.851562 0.359375 10.59375 0.359375 Z M 10.1875 -17.09375 C 8.84375 -17.09375 7.710938 -16.601562 6.796875 -15.625 C 5.890625 -14.644531 5.328125 -13.273438 5.109375 -11.515625 L 14.859375 -11.515625 L 14.859375 -11.765625 C 14.765625 -13.453125 14.304688 -14.757812 13.484375 -15.6875 C 12.671875 -16.625 11.570312 -17.09375 10.1875 -17.09375 Z M 10.1875 -17.09375 "/></g></g></g><g fill="#7b291e" fill-opacity="1"><g transform="translate(131.212391, 93.743735)"><g><path d="M 11.921875 -16.484375 C 11.421875 -16.566406 10.878906 -16.609375 10.296875 -16.609375 C 8.109375 -16.609375 6.625 -15.675781 5.84375 -13.8125 L 5.84375 0 L 2.515625 0 L 2.515625 -19.46875 L 5.75 -19.46875 L 5.8125 -17.21875 C 6.90625 -18.957031 8.453125 -19.828125 10.453125 -19.828125 C 11.097656 -19.828125 11.585938 -19.742188 11.921875 -19.578125 Z M 11.921875 -16.484375 "/></g></g></g><g fill="#7b291e" fill-opacity="1"><g transform="translate(145.890039, 93.743735)"><g><path d="M 13.859375 -5.15625 C 13.859375 -6.0625 13.515625 -6.757812 12.828125 -7.25 C 12.148438 -7.75 10.96875 -8.175781 9.28125 -8.53125 C 7.601562 -8.894531 6.269531 -9.328125 5.28125 -9.828125 C 4.289062 -10.335938 3.554688 -10.941406 3.078125 -11.640625 C 2.609375 -12.335938 2.375 -13.164062 2.375 -14.125 C 2.375 -15.71875 3.046875 -17.066406 4.390625 -18.171875 C 5.742188 -19.273438 7.472656 -19.828125 9.578125 -19.828125 C 11.773438 -19.828125 13.5625 -19.253906 14.9375 -18.109375 C 16.3125 -16.972656 17 -15.519531 17 -13.75 L 13.65625 -13.75 C 13.65625 -14.65625 13.265625 -15.4375 12.484375 -16.09375 C 11.710938 -16.757812 10.742188 -17.09375 9.578125 -17.09375 C 8.359375 -17.09375 7.40625 -16.828125 6.71875 -16.296875 C 6.039062 -15.765625 5.703125 -15.078125 5.703125 -14.234375 C 5.703125 -13.429688 6.019531 -12.820312 6.65625 -12.40625 C 7.289062 -12 8.4375 -11.609375 10.09375 -11.234375 C 11.757812 -10.867188 13.109375 -10.425781 14.140625 -9.90625 C 15.171875 -9.394531 15.9375 -8.773438 16.4375 -8.046875 C 16.9375 -7.328125 17.1875 -6.441406 17.1875 -5.390625 C 17.1875 -3.648438 16.488281 -2.253906 15.09375 -1.203125 C 13.695312 -0.160156 11.890625 0.359375 9.671875 0.359375 C 8.117188 0.359375 6.738281 0.0820312 5.53125 -0.46875 C 4.332031 -1.019531 3.394531 -1.789062 2.71875 -2.78125 C 2.039062 -3.769531 1.703125 -4.835938 1.703125 -5.984375 L 5.03125 -5.984375 C 5.09375 -4.867188 5.539062 -3.984375 6.375 -3.328125 C 7.207031 -2.679688 8.304688 -2.359375 9.671875 -2.359375 C 10.929688 -2.359375 11.941406 -2.613281 12.703125 -3.125 C 13.472656 -3.632812 13.859375 -4.3125 13.859375 -5.15625 Z M 13.859375 -5.15625 "/></g></g></g><g fill="#7b291e" fill-opacity="1"><g transform="translate(167.097921, 93.743735)"><g><path d="M 5.84375 -17.109375 C 7.320312 -18.921875 9.242188 -19.828125 11.609375 -19.828125 C 15.722656 -19.828125 17.796875 -17.503906 17.828125 -12.859375 L 17.828125 0 L 14.5 0 L 14.5 -12.875 C 14.488281 -14.28125 14.164062 -15.316406 13.53125 -15.984375 C 12.90625 -16.660156 11.925781 -17 10.59375 -17 C 9.519531 -17 8.570312 -16.710938 7.75 -16.140625 C 6.9375 -15.566406 6.300781 -14.8125 5.84375 -13.875 L 5.84375 0 L 2.515625 0 L 2.515625 -27.640625 L 5.84375 -27.640625 Z M 5.84375 -17.109375 "/></g></g></g><g fill="#7b291e" fill-opacity="1"><g transform="translate(189.601058, 93.743735)"><g><path d="M 6.140625 0 L 2.8125 0 L 2.8125 -19.46875 L 6.140625 -19.46875 Z M 2.53125 -24.625 C 2.53125 -25.164062 2.695312 -25.617188 3.03125 -25.984375 C 3.363281 -26.359375 3.851562 -26.546875 4.5 -26.546875 C 5.144531 -26.546875 5.632812 -26.359375 5.96875 -25.984375 C 6.300781 -25.617188 6.46875 -25.164062 6.46875 -24.625 C 6.46875 -24.082031 6.300781 -23.628906 5.96875 -23.265625 C 5.632812 -22.910156 5.144531 -22.734375 4.5 -22.734375 C 3.851562 -22.734375 3.363281 -22.910156 3.03125 -23.265625 C 2.695312 -23.628906 2.53125 -24.082031 2.53125 -24.625 Z M 2.53125 -24.625 "/></g></g></g><g fill="#7b291e" fill-opacity="1"><g transform="translate(200.752734, 93.743735)"><g><path d="M 18.96875 -9.515625 C 18.96875 -6.554688 18.285156 -4.171875 16.921875 -2.359375 C 15.566406 -0.546875 13.734375 0.359375 11.421875 0.359375 C 9.054688 0.359375 7.195312 -0.390625 5.84375 -1.890625 L 5.84375 7.484375 L 2.515625 7.484375 L 2.515625 -19.46875 L 5.5625 -19.46875 L 5.71875 -17.3125 C 7.070312 -18.988281 8.957031 -19.828125 11.375 -19.828125 C 13.707031 -19.828125 15.554688 -18.941406 16.921875 -17.171875 C 18.285156 -15.410156 18.96875 -12.960938 18.96875 -9.828125 Z M 15.640625 -9.890625 C 15.640625 -12.085938 15.171875 -13.820312 14.234375 -15.09375 C 13.296875 -16.363281 12.007812 -17 10.375 -17 C 8.363281 -17 6.851562 -16.101562 5.84375 -14.3125 L 5.84375 -5.015625 C 6.84375 -3.242188 8.367188 -2.359375 10.421875 -2.359375 C 12.015625 -2.359375 13.28125 -2.988281 14.21875 -4.25 C 15.164062 -5.519531 15.640625 -7.398438 15.640625 -9.890625 Z M 15.640625 -9.890625 "/></g></g></g><g fill="#7b291e" fill-opacity="1"><g transform="translate(223.633671, 93.743735)"><g/></g></g><g fill="#7b291e" fill-opacity="1"><g transform="translate(234.965244, 93.743735)"><g><path d="M 5.828125 4.859375 L 3.140625 4.859375 L 3.140625 -26.1875 L 5.828125 -26.1875 Z M 5.828125 4.859375 "/></g></g></g><g fill="#7b291e" fill-opacity="1"><g transform="translate(246.1529, 93.743735)"><g/></g></g><g fill="#7b291e" fill-opacity="1"><g transform="translate(257.484474, 93.743735)"><g><path d="M 22.3125 -8.3125 C 21.988281 -5.539062 20.960938 -3.398438 19.234375 -1.890625 C 17.515625 -0.390625 15.226562 0.359375 12.375 0.359375 C 9.28125 0.359375 6.800781 -0.75 4.9375 -2.96875 C 3.070312 -5.1875 2.140625 -8.15625 2.140625 -11.875 L 2.140625 -14.390625 C 2.140625 -16.828125 2.570312 -18.96875 3.4375 -20.8125 C 4.3125 -22.65625 5.546875 -24.070312 7.140625 -25.0625 C 8.734375 -26.050781 10.582031 -26.546875 12.6875 -26.546875 C 15.46875 -26.546875 17.695312 -25.769531 19.375 -24.21875 C 21.050781 -22.664062 22.03125 -20.519531 22.3125 -17.78125 L 18.828125 -17.78125 C 18.535156 -19.863281 17.882812 -21.375 16.875 -22.3125 C 15.875 -23.25 14.476562 -23.71875 12.6875 -23.71875 C 10.476562 -23.71875 8.742188 -22.898438 7.484375 -21.265625 C 6.234375 -19.628906 5.609375 -17.304688 5.609375 -14.296875 L 5.609375 -11.765625 C 5.609375 -8.921875 6.203125 -6.660156 7.390625 -4.984375 C 8.578125 -3.304688 10.238281 -2.46875 12.375 -2.46875 C 14.289062 -2.46875 15.757812 -2.898438 16.78125 -3.765625 C 17.8125 -4.640625 18.492188 -6.15625 18.828125 -8.3125 Z M 22.3125 -8.3125 "/></g></g></g><g fill="#7b291e" fill-opacity="1"><g transform="translate(283.675482, 93.743735)"><g><path d="M 1.640625 -9.90625 C 1.640625 -11.8125 2.015625 -13.523438 2.765625 -15.046875 C 3.515625 -16.578125 4.554688 -17.753906 5.890625 -18.578125 C 7.222656 -19.410156 8.75 -19.828125 10.46875 -19.828125 C 13.125 -19.828125 15.269531 -18.90625 16.90625 -17.0625 C 18.539062 -15.226562 19.359375 -12.789062 19.359375 -9.75 L 19.359375 -9.515625 C 19.359375 -7.617188 18.992188 -5.914062 18.265625 -4.40625 C 17.546875 -2.90625 16.507812 -1.734375 15.15625 -0.890625 C 13.800781 -0.0546875 12.25 0.359375 10.5 0.359375 C 7.863281 0.359375 5.726562 -0.554688 4.09375 -2.390625 C 2.457031 -4.222656 1.640625 -6.648438 1.640625 -9.671875 Z M 4.984375 -9.515625 C 4.984375 -7.359375 5.484375 -5.625 6.484375 -4.3125 C 7.484375 -3.007812 8.820312 -2.359375 10.5 -2.359375 C 12.195312 -2.359375 13.539062 -3.019531 14.53125 -4.34375 C 15.53125 -5.664062 16.03125 -7.519531 16.03125 -9.90625 C 16.03125 -12.039062 15.519531 -13.769531 14.5 -15.09375 C 13.488281 -16.425781 12.144531 -17.09375 10.46875 -17.09375 C 8.820312 -17.09375 7.492188 -16.4375 6.484375 -15.125 C 5.484375 -13.820312 4.984375 -11.953125 4.984375 -9.515625 Z M 4.984375 -9.515625 "/></g></g></g><g fill="#7b291e" fill-opacity="1"><g transform="translate(306.898205, 93.743735)"><g><path d="M 14.53125 0 C 14.34375 -0.382812 14.1875 -1.066406 14.0625 -2.046875 C 12.519531 -0.441406 10.675781 0.359375 8.53125 0.359375 C 6.613281 0.359375 5.035156 -0.179688 3.796875 -1.265625 C 2.566406 -2.347656 1.953125 -3.722656 1.953125 -5.390625 C 1.953125 -7.421875 2.722656 -8.992188 4.265625 -10.109375 C 5.804688 -11.234375 7.976562 -11.796875 10.78125 -11.796875 L 14.015625 -11.796875 L 14.015625 -13.328125 C 14.015625 -14.492188 13.664062 -15.421875 12.96875 -16.109375 C 12.269531 -16.796875 11.242188 -17.140625 9.890625 -17.140625 C 8.703125 -17.140625 7.707031 -16.835938 6.90625 -16.234375 C 6.101562 -15.640625 5.703125 -14.914062 5.703125 -14.0625 L 2.359375 -14.0625 C 2.359375 -15.039062 2.703125 -15.976562 3.390625 -16.875 C 4.078125 -17.78125 5.007812 -18.5 6.1875 -19.03125 C 7.375 -19.5625 8.675781 -19.828125 10.09375 -19.828125 C 12.332031 -19.828125 14.085938 -19.265625 15.359375 -18.140625 C 16.628906 -17.023438 17.289062 -15.484375 17.34375 -13.515625 L 17.34375 -4.546875 C 17.34375 -2.765625 17.570312 -1.34375 18.03125 -0.28125 L 18.03125 0 Z M 9.015625 -2.53125 C 10.054688 -2.53125 11.046875 -2.800781 11.984375 -3.34375 C 12.921875 -3.882812 13.597656 -4.585938 14.015625 -5.453125 L 14.015625 -9.4375 L 11.40625 -9.4375 C 7.332031 -9.4375 5.296875 -8.242188 5.296875 -5.859375 C 5.296875 -4.816406 5.640625 -4 6.328125 -3.40625 C 7.023438 -2.820312 7.921875 -2.53125 9.015625 -2.53125 Z M 9.015625 -2.53125 "/></g></g></g><g fill="#7b291e" fill-opacity="1"><g transform="translate(329.149475, 93.743735)"><g><path d="M 10.328125 -2.359375 C 11.515625 -2.359375 12.550781 -2.71875 13.4375 -3.4375 C 14.320312 -4.15625 14.8125 -5.054688 14.90625 -6.140625 L 18.0625 -6.140625 C 18 -5.023438 17.613281 -3.960938 16.90625 -2.953125 C 16.195312 -1.941406 15.253906 -1.132812 14.078125 -0.53125 C 12.898438 0.0625 11.648438 0.359375 10.328125 0.359375 C 7.671875 0.359375 5.5625 -0.523438 4 -2.296875 C 2.4375 -4.066406 1.65625 -6.484375 1.65625 -9.546875 L 1.65625 -10.109375 C 1.65625 -12.003906 2 -13.6875 2.6875 -15.15625 C 3.382812 -16.632812 4.382812 -17.78125 5.6875 -18.59375 C 6.988281 -19.414062 8.53125 -19.828125 10.3125 -19.828125 C 12.488281 -19.828125 14.300781 -19.171875 15.75 -17.859375 C 17.195312 -16.554688 17.96875 -14.859375 18.0625 -12.765625 L 14.90625 -12.765625 C 14.8125 -14.023438 14.335938 -15.0625 13.484375 -15.875 C 12.628906 -16.6875 11.570312 -17.09375 10.3125 -17.09375 C 8.613281 -17.09375 7.300781 -16.484375 6.375 -15.265625 C 5.445312 -14.046875 4.984375 -12.285156 4.984375 -9.984375 L 4.984375 -9.359375 C 4.984375 -7.109375 5.441406 -5.378906 6.359375 -4.171875 C 7.285156 -2.960938 8.609375 -2.359375 10.328125 -2.359375 Z M 10.328125 -2.359375 "/></g></g></g><g fill="#7b291e" fill-opacity="1"><g transform="translate(350.645192, 93.743735)"><g><path d="M 5.84375 -17.109375 C 7.320312 -18.921875 9.242188 -19.828125 11.609375 -19.828125 C 15.722656 -19.828125 17.796875 -17.503906 17.828125 -12.859375 L 17.828125 0 L 14.5 0 L 14.5 -12.875 C 14.488281 -14.28125 14.164062 -15.316406 13.53125 -15.984375 C 12.90625 -16.660156 11.925781 -17 10.59375 -17 C 9.519531 -17 8.570312 -16.710938 7.75 -16.140625 C 6.9375 -15.566406 6.300781 -14.8125 5.84375 -13.875 L 5.84375 0 L 2.515625 0 L 2.515625 -27.640625 L 5.84375 -27.640625 Z M 5.84375 -17.109375 "/></g></g></g><g fill="#7b291e" fill-opacity="1"><g transform="translate(373.148329, 93.743735)"><g><path d="M 6.140625 0 L 2.8125 0 L 2.8125 -19.46875 L 6.140625 -19.46875 Z M 2.53125 -24.625 C 2.53125 -25.164062 2.695312 -25.617188 3.03125 -25.984375 C 3.363281 -26.359375 3.851562 -26.546875 4.5 -26.546875 C 5.144531 -26.546875 5.632812 -26.359375 5.96875 -25.984375 C 6.300781 -25.617188 6.46875 -25.164062 6.46875 -24.625 C 6.46875 -24.082031 6.300781 -23.628906 5.96875 -23.265625 C 5.632812 -22.910156 5.144531 -22.734375 4.5 -22.734375 C 3.851562 -22.734375 3.363281 -22.910156 3.03125 -23.265625 C 2.695312 -23.628906 2.53125 -24.082031 2.53125 -24.625 Z M 2.53125 -24.625 "/></g></g></g><g fill="#7b291e" fill-opacity="1"><g transform="translate(384.300017, 93.743735)"><g><path d="M 5.671875 -19.46875 L 5.78125 -17.015625 C 7.257812 -18.890625 9.203125 -19.828125 11.609375 -19.828125 C 15.722656 -19.828125 17.796875 -17.503906 17.828125 -12.859375 L 17.828125 0 L 14.5 0 L 14.5 -12.875 C 14.488281 -14.28125 14.164062 -15.316406 13.53125 -15.984375 C 12.90625 -16.660156 11.925781 -17 10.59375 -17 C 9.519531 -17 8.570312 -16.710938 7.75 -16.140625 C 6.9375 -15.566406 6.300781 -14.8125 5.84375 -13.875 L 5.84375 0 L 2.515625 0 L 2.515625 -19.46875 Z M 5.671875 -19.46875 "/></g></g></g><g fill="#7b291e" fill-opacity="1"><g transform="translate(406.839122, 93.743735)"><g><path d="M 1.734375 -9.890625 C 1.734375 -12.929688 2.429688 -15.347656 3.828125 -17.140625 C 5.234375 -18.929688 7.09375 -19.828125 9.40625 -19.828125 C 11.78125 -19.828125 13.632812 -18.988281 14.96875 -17.3125 L 15.125 -19.46875 L 18.171875 -19.46875 L 18.171875 -0.46875 C 18.171875 2.050781 17.421875 4.035156 15.921875 5.484375 C 14.429688 6.929688 12.425781 7.65625 9.90625 7.65625 C 8.507812 7.65625 7.140625 7.351562 5.796875 6.75 C 4.453125 6.15625 3.425781 5.335938 2.71875 4.296875 L 4.4375 2.296875 C 5.863281 4.066406 7.609375 4.953125 9.671875 4.953125 C 11.296875 4.953125 12.5625 4.492188 13.46875 3.578125 C 14.375 2.671875 14.828125 1.390625 14.828125 -0.265625 L 14.828125 -1.9375 C 13.492188 -0.40625 11.675781 0.359375 9.375 0.359375 C 7.09375 0.359375 5.25 -0.554688 3.84375 -2.390625 C 2.4375 -4.222656 1.734375 -6.722656 1.734375 -9.890625 Z M 5.078125 -9.515625 C 5.078125 -7.316406 5.523438 -5.59375 6.421875 -4.34375 C 7.316406 -3.09375 8.578125 -2.46875 10.203125 -2.46875 C 12.296875 -2.46875 13.835938 -3.421875 14.828125 -5.328125 L 14.828125 -14.21875 C 13.804688 -16.070312 12.273438 -17 10.234375 -17 C 8.617188 -17 7.351562 -16.367188 6.4375 -15.109375 C 5.53125 -13.847656 5.078125 -11.984375 5.078125 -9.515625 Z M 5.078125 -9.515625 "/></g></g></g></g></g></svg>